<?xml version="1.0" standalone="no"?>
<svg xmlns="http://www.w3.org/2000/svg" width="500" height="500"><defs><clipPath id="clip-path-dot-color"><rect x="19" y="159" width="14" height="14" transform="rotate(0,26,166)"/><rect x="19" y="187" width="14" height="14" transform="rotate(0,26,194)"/><rect x="19" y="215" width="14" height="14" transform="rotate(0,26,222)"/><rect x="19" y="229" width="14" height="14" transform="rotate(0,26,236)"/><rect x="19" y="257" width="14" height="14" transform="rotate(0,26,264)"/><rect x="19" y="271" width="14" height="14" transform="rotate(0,26,278)"/><rect x="19" y="327" width="14" height="14" transform="rotate(0,26,334)"/><rect x="33" y="145" width="14" height="14" transform="rotate(0,40,152)"/><rect x="33" y="201" width="14" height="14" transform="rotate(0,40,208)"/><rect x="33" y="215" width="14" height="14" transform="rotate(0,40,222)"/><rect x="33" y="243" width="14" height="14" transform="rotate(0,40,250)"/><rect x="33" y="299" width="14" height="14" transform="rotate(0,40,306)"/><rect x="33" y="313" width="14" height="14" transform="rotate(0,40,320)"/><rect x="33" y="327" width="14" height="14" transform="rotate(0,40,334)"/><rect x="33" y="355" width="14" height="14" transform="rotate(0,40,362)"/><rect x="47" y="159" width="14" height="14" transform="rotate(0,54,166)"/><rect x="47" y="173" width="14" height="14" transform="rotate(0,54,180)"/><rect x="47" y="243" width="14" height="14" transform="rotate(0,54,250)"/><rect x="47" y="257" width="14" height="14" transform="rotate(0,54,264)"/><rect x="47" y="285" width="14" height="14" transform="rotate(0,54,292)"/><rect x="47" y="313" width="14" height="14" transform="rotate(0,54,320)"/><rect x="47" y="327" width="14" height="14" transform="rotate(0,54,334)"/><rect x="47" y="341" width="14" height="14" transform="rotate(0,54,348)"/><rect x="61" y="131" width="14" height="14" transform="rotate(0,68,138)"/><rect x="61" y="159" width="14" height="14" transform="rotate(0,68,166)"/><rect x="61" y="201" width="14" height="14" transform="rotate(0,68,208)"/><rect x="61" y="229" width="14" height="14" transform="rotate(0,68,236)"/><rect x="61" y="243" width="14" height="14" transform="rotate(0,68,250)"/><rect x="61" y="313" width="14" height="14" transform="rotate(0,68,320)"/><rect x="61" y="327" width="14" height="14" transform="rotate(0,68,334)"/><rect x="75" y="173" width="14" height="14" transform="rotate(0,82,180)"/><rect x="75" y="229" width="14" height="14" transform="rotate(0,82,236)"/><rect x="75" y="243" width="14" height="14" transform="rotate(0,82,250)"/><rect x="75" y="285" width="14" height="14" transform="rotate(0,82,292)"/><rect x="75" y="313" width="14" height="14" transform="rotate(0,82,320)"/><rect x="75" y="327" width="14" height="14" transform="rotate(0,82,334)"/><rect x="75" y="355" width="14" height="14" transform="rotate(0,82,362)"/><rect x="89" y="131" width="14" height="14" transform="rotate(0,96,138)"/><rect x="89" y="145" width="14" height="14" transform="rotate(0,96,152)"/><rect x="89" y="159" width="14" height="14" transform="rotate(0,96,166)"/><rect x="89" y="173" width="14" height="14" transform="rotate(0,96,180)"/><rect x="89" y="187" width="14" height="14" transform="rotate(0,96,194)"/><rect x="89" y="201" width="14" height="14" transform="rotate(0,96,208)"/><rect x="89" y="215" width="14" height="14" transform="rotate(0,96,222)"/><rect x="89" y="243" width="14" height="14" transform="rotate(0,96,250)"/><rect x="89" y="257" width="14" height="14" transform="rotate(0,96,264)"/><rect x="89" y="271" width="14" height="14" transform="rotate(0,96,278)"/><rect x="89" y="285" width="14" height="14" transform="rotate(0,96,292)"/><rect x="89" y="313" width="14" height="14" transform="rotate(0,96,320)"/><rect x="89" y="355" width="14" height="14" transform="rotate(0,96,362)"/><rect x="103" y="131" width="14" height="14" transform="rotate(0,110,138)"/><rect x="103" y="159" width="14" height="14" transform="rotate(0,110,166)"/><rect x="103" y="187" width="14" height="14" transform="rotate(0,110,194)"/><rect x="103" y="215" width="14" height="14" transform="rotate(0,110,222)"/><rect x="103" y="243" width="14" height="14" transform="rotate(0,110,250)"/><rect x="103" y="271" width="14" height="14" transform="rotate(0,110,278)"/><rect x="103" y="299" width="14" height="14" transform="rotate(0,110,306)"/><rect x="103" y="327" width="14" height="14" transform="rotate(0,110,334)"/><rect x="103" y="355" width="14" height="14" transform="rotate(0,110,362)"/><rect x="117" y="131" width="14" height="14" transform="rotate(0,124,138)"/><rect x="117" y="159" width="14" height="14" transform="rotate(0,124,166)"/><rect x="117" y="173" width="14" height="14" transform="rotate(0,124,180)"/><rect x="117" y="201" width="14" height="14" transform="rotate(0,124,208)"/><rect x="117" y="243" width="14" height="14" transform="rotate(0,124,250)"/><rect x="117" y="271" width="14" height="14" transform="rotate(0,124,278)"/><rect x="117" y="285" width="14" height="14" transform="rotate(0,124,292)"/><rect x="117" y="299" width="14" height="14" transform="rotate(0,124,306)"/><rect x="117" y="355" width="14" height="14" transform="rotate(0,124,362)"/><rect x="131" y="33" width="14" height="14" transform="rotate(0,138,40)"/><rect x="131" y="47" width="14" height="14" transform="rotate(0,138,54)"/><rect x="131" y="103" width="14" height="14" transform="rotate(0,138,110)"/><rect x="131" y="159" width="14" height="14" transform="rotate(0,138,166)"/><rect x="131" y="173" width="14" height="14" transform="rotate(0,138,180)"/><rect x="131" y="201" width="14" height="14" transform="rotate(0,138,208)"/><rect x="131" y="229" width="14" height="14" transform="rotate(0,138,236)"/><rect x="131" y="243" width="14" height="14" transform="rotate(0,138,250)"/><rect x="131" y="299" width="14" height="14" transform="rotate(0,138,306)"/><rect x="131" y="327" width="14" height="14" transform="rotate(0,138,334)"/><rect x="131" y="341" width="14" height="14" transform="rotate(0,138,348)"/><rect x="131" y="383" width="14" height="14" transform="rotate(0,138,390)"/><rect x="131" y="397" width="14" height="14" transform="rotate(0,138,404)"/><rect x="131" y="425" width="14" height="14" transform="rotate(0,138,432)"/><rect x="145" y="19" width="14" height="14" transform="rotate(0,152,26)"/><rect x="145" y="33" width="14" height="14" transform="rotate(0,152,40)"/><rect x="145" y="75" width="14" height="14" transform="rotate(0,152,82)"/><rect x="145" y="187" width="14" height="14" transform="rotate(0,152,194)"/><rect x="145" y="201" width="14" height="14" transform="rotate(0,152,208)"/><rect x="145" y="215" width="14" height="14" transform="rotate(0,152,222)"/><rect x="145" y="229" width="14" height="14" transform="rotate(0,152,236)"/><rect x="145" y="243" width="14" height="14" transform="rotate(0,152,250)"/><rect x="145" y="257" width="14" height="14" transform="rotate(0,152,264)"/><rect x="145" y="285" width="14" height="14" transform="rotate(0,152,292)"/><rect x="145" y="299" width="14" height="14" transform="rotate(0,152,306)"/><rect x="145" y="313" width="14" height="14" transform="rotate(0,152,320)"/><rect x="145" y="341" width="14" height="14" transform="rotate(0,152,348)"/><rect x="145" y="355" width="14" height="14" transform="rotate(0,152,362)"/><rect x="145" y="383" width="14" height="14" transform="rotate(0,152,390)"/><rect x="145" y="425" width="14" height="14" transform="rotate(0,152,432)"/><rect x="145" y="467" width="14" height="14" transform="rotate(0,152,474)"/><rect x="159" y="19" width="14" height="14" transform="rotate(0,166,26)"/><rect x="159" y="33" width="14" height="14" transform="rotate(0,166,40)"/><rect x="159" y="47" width="14" height="14" transform="rotate(0,166,54)"/><rect x="159" y="61" width="14" height="14" transform="rotate(0,166,68)"/><rect x="159" y="103" width="14" height="14" transform="rotate(0,166,110)"/><rect x="159" y="145" width="14" height="14" transform="rotate(0,166,152)"/><rect x="159" y="173" width="14" height="14" transform="rotate(0,166,180)"/><rect x="159" y="187" width="14" height="14" transform="rotate(0,166,194)"/><rect x="159" y="229" width="14" height="14" transform="rotate(0,166,236)"/><rect x="159" y="285" width="14" height="14" transform="rotate(0,166,292)"/><rect x="159" y="299" width="14" height="14" transform="rotate(0,166,306)"/><rect x="159" y="313" width="14" height="14" transform="rotate(0,166,320)"/><rect x="159" y="341" width="14" height="14" transform="rotate(0,166,348)"/><rect x="159" y="355" width="14" height="14" transform="rotate(0,166,362)"/><rect x="159" y="383" width="14" height="14" transform="rotate(0,166,390)"/><rect x="159" y="425" width="14" height="14" transform="rotate(0,166,432)"/><rect x="159" y="439" width="14" height="14" transform="rotate(0,166,446)"/><rect x="159" y="467" width="14" height="14" transform="rotate(0,166,474)"/><rect x="173" y="89" width="14" height="14" transform="rotate(0,180,96)"/><rect x="173" y="131" width="14" height="14" transform="rotate(0,180,138)"/><rect x="173" y="187" width="14" height="14" transform="rotate(0,180,194)"/><rect x="173" y="215" width="14" height="14" transform="rotate(0,180,222)"/><rect x="173" y="257" width="14" height="14" transform="rotate(0,180,264)"/><rect x="173" y="299" width="14" height="14" transform="rotate(0,180,306)"/><rect x="173" y="327" width="14" height="14" transform="rotate(0,180,334)"/><rect x="173" y="397" width="14" height="14" transform="rotate(0,180,404)"/><rect x="173" y="411" width="14" height="14" transform="rotate(0,180,418)"/><rect x="173" y="425" width="14" height="14" transform="rotate(0,180,432)"/><rect x="173" y="467" width="14" height="14" transform="rotate(0,180,474)"/><rect x="187" y="47" width="14" height="14" transform="rotate(0,194,54)"/><rect x="187" y="75" width="14" height="14" transform="rotate(0,194,82)"/><rect x="187" y="89" width="14" height="14" transform="rotate(0,194,96)"/><rect x="187" y="103" width="14" height="14" transform="rotate(0,194,110)"/><rect x="187" y="131" width="14" height="14" transform="rotate(0,194,138)"/><rect x="187" y="145" width="14" height="14" transform="rotate(0,194,152)"/><rect x="187" y="187" width="14" height="14" transform="rotate(0,194,194)"/><rect x="187" y="229" width="14" height="14" transform="rotate(0,194,236)"/><rect x="187" y="257" width="14" height="14" transform="rotate(0,194,264)"/><rect x="187" y="355" width="14" height="14" transform="rotate(0,194,362)"/><rect x="187" y="369" width="14" height="14" transform="rotate(0,194,376)"/><rect x="187" y="383" width="14" height="14" transform="rotate(0,194,390)"/><rect x="187" y="453" width="14" height="14" transform="rotate(0,194,460)"/><rect x="187" y="467" width="14" height="14" transform="rotate(0,194,474)"/><rect x="201" y="19" width="14" height="14" transform="rotate(0,208,26)"/><rect x="201" y="47" width="14" height="14" transform="rotate(0,208,54)"/><rect x="201" y="61" width="14" height="14" transform="rotate(0,208,68)"/><rect x="201" y="117" width="14" height="14" transform="rotate(0,208,124)"/><rect x="201" y="131" width="14" height="14" transform="rotate(0,208,138)"/><rect x="201" y="145" width="14" height="14" transform="rotate(0,208,152)"/><rect x="201" y="159" width="14" height="14" transform="rotate(0,208,166)"/><rect x="201" y="173" width="14" height="14" transform="rotate(0,208,180)"/><rect x="201" y="187" width="14" height="14" transform="rotate(0,208,194)"/><rect x="201" y="229" width="14" height="14" transform="rotate(0,208,236)"/><rect x="201" y="243" width="14" height="14" transform="rotate(0,208,250)"/><rect x="201" y="313" width="14" height="14" transform="rotate(0,208,320)"/><rect x="201" y="341" width="14" height="14" transform="rotate(0,208,348)"/><rect x="201" y="355" width="14" height="14" transform="rotate(0,208,362)"/><rect x="201" y="383" width="14" height="14" transform="rotate(0,208,390)"/><rect x="201" y="425" width="14" height="14" transform="rotate(0,208,432)"/><rect x="201" y="453" width="14" height="14" transform="rotate(0,208,460)"/><rect x="201" y="467" width="14" height="14" transform="rotate(0,208,474)"/><rect x="215" y="75" width="14" height="14" transform="rotate(0,222,82)"/><rect x="215" y="89" width="14" height="14" transform="rotate(0,222,96)"/><rect x="215" y="103" width="14" height="14" transform="rotate(0,222,110)"/><rect x="215" y="131" width="14" height="14" transform="rotate(0,222,138)"/><rect x="215" y="145" width="14" height="14" transform="rotate(0,222,152)"/><rect x="215" y="173" width="14" height="14" transform="rotate(0,222,180)"/><rect x="215" y="187" width="14" height="14" transform="rotate(0,222,194)"/><rect x="215" y="215" width="14" height="14" transform="rotate(0,222,222)"/><rect x="215" y="243" width="14" height="14" transform="rotate(0,222,250)"/><rect x="215" y="285" width="14" height="14" transform="rotate(0,222,292)"/><rect x="215" y="341" width="14" height="14" transform="rotate(0,222,348)"/><rect x="215" y="355" width="14" height="14" transform="rotate(0,222,362)"/><rect x="215" y="411" width="14" height="14" transform="rotate(0,222,418)"/><rect x="215" y="425" width="14" height="14" transform="rotate(0,222,432)"/><rect x="215" y="439" width="14" height="14" transform="rotate(0,222,446)"/><rect x="215" y="467" width="14" height="14" transform="rotate(0,222,474)"/><rect x="229" y="19" width="14" height="14" transform="rotate(0,236,26)"/><rect x="229" y="33" width="14" height="14" transform="rotate(0,236,40)"/><rect x="229" y="47" width="14" height="14" transform="rotate(0,236,54)"/><rect x="229" y="131" width="14" height="14" transform="rotate(0,236,138)"/><rect x="229" y="145" width="14" height="14" transform="rotate(0,236,152)"/><rect x="229" y="159" width="14" height="14" transform="rotate(0,236,166)"/><rect x="229" y="173" width="14" height="14" transform="rotate(0,236,180)"/><rect x="229" y="187" width="14" height="14" transform="rotate(0,236,194)"/><rect x="229" y="215" width="14" height="14" transform="rotate(0,236,222)"/><rect x="229" y="369" width="14" height="14" transform="rotate(0,236,376)"/><rect x="229" y="383" width="14" height="14" transform="rotate(0,236,390)"/><rect x="229" y="425" width="14" height="14" transform="rotate(0,236,432)"/><rect x="243" y="33" width="14" height="14" transform="rotate(0,250,40)"/><rect x="243" y="75" width="14" height="14" transform="rotate(0,250,82)"/><rect x="243" y="103" width="14" height="14" transform="rotate(0,250,110)"/><rect x="243" y="117" width="14" height="14" transform="rotate(0,250,124)"/><rect x="243" y="145" width="14" height="14" transform="rotate(0,250,152)"/><rect x="243" y="187" width="14" height="14" transform="rotate(0,250,194)"/><rect x="243" y="201" width="14" height="14" transform="rotate(0,250,208)"/><rect x="243" y="285" width="14" height="14" transform="rotate(0,250,292)"/><rect x="243" y="299" width="14" height="14" transform="rotate(0,250,306)"/><rect x="243" y="355" width="14" height="14" transform="rotate(0,250,362)"/><rect x="243" y="383" width="14" height="14" transform="rotate(0,250,390)"/><rect x="243" y="397" width="14" height="14" transform="rotate(0,250,404)"/><rect x="243" y="425" width="14" height="14" transform="rotate(0,250,432)"/><rect x="243" y="453" width="14" height="14" transform="rotate(0,250,460)"/><rect x="257" y="19" width="14" height="14" transform="rotate(0,264,26)"/><rect x="257" y="61" width="14" height="14" transform="rotate(0,264,68)"/><rect x="257" y="117" width="14" height="14" transform="rotate(0,264,124)"/><rect x="257" y="131" width="14" height="14" transform="rotate(0,264,138)"/><rect x="257" y="187" width="14" height="14" transform="rotate(0,264,194)"/><rect x="257" y="201" width="14" height="14" transform="rotate(0,264,208)"/><rect x="257" y="215" width="14" height="14" transform="rotate(0,264,222)"/><rect x="257" y="229" width="14" height="14" transform="rotate(0,264,236)"/><rect x="257" y="243" width="14" height="14" transform="rotate(0,264,250)"/><rect x="257" y="271" width="14" height="14" transform="rotate(0,264,278)"/><rect x="257" y="285" width="14" height="14" transform="rotate(0,264,292)"/><rect x="257" y="299" width="14" height="14" transform="rotate(0,264,306)"/><rect x="257" y="313" width="14" height="14" transform="rotate(0,264,320)"/><rect x="257" y="341" width="14" height="14" transform="rotate(0,264,348)"/><rect x="257" y="355" width="14" height="14" transform="rotate(0,264,362)"/><rect x="257" y="383" width="14" height="14" transform="rotate(0,264,390)"/><rect x="257" y="425" width="14" height="14" transform="rotate(0,264,432)"/><rect x="257" y="453" width="14" height="14" transform="rotate(0,264,460)"/><rect x="257" y="467" width="14" height="14" transform="rotate(0,264,474)"/><rect x="271" y="33" width="14" height="14" transform="rotate(0,278,40)"/><rect x="271" y="75" width="14" height="14" transform="rotate(0,278,82)"/><rect x="271" y="103" width="14" height="14" transform="rotate(0,278,110)"/><rect x="271" y="117" width="14" height="14" transform="rotate(0,278,124)"/><rect x="271" y="159" width="14" height="14" transform="rotate(0,278,166)"/><rect x="271" y="201" width="14" height="14" transform="rotate(0,278,208)"/><rect x="271" y="229" width="14" height="14" transform="rotate(0,278,236)"/><rect x="271" y="243" width="14" height="14" transform="rotate(0,278,250)"/><rect x="271" y="271" width="14" height="14" transform="rotate(0,278,278)"/><rect x="271" y="285" width="14" height="14" transform="rotate(0,278,292)"/><rect x="271" y="313" width="14" height="14" transform="rotate(0,278,320)"/><rect x="271" y="341" width="14" height="14" transform="rotate(0,278,348)"/><rect x="271" y="355" width="14" height="14" transform="rotate(0,278,362)"/><rect x="271" y="397" width="14" height="14" transform="rotate(0,278,404)"/><rect x="271" y="425" width="14" height="14" transform="rotate(0,278,432)"/><rect x="271" y="439" width="14" height="14" transform="rotate(0,278,446)"/><rect x="271" y="467" width="14" height="14" transform="rotate(0,278,474)"/><rect x="285" y="19" width="14" height="14" transform="rotate(0,292,26)"/><rect x="285" y="33" width="14" height="14" transform="rotate(0,292,40)"/><rect x="285" y="47" width="14" height="14" transform="rotate(0,292,54)"/><rect x="285" y="131" width="14" height="14" transform="rotate(0,292,138)"/><rect x="285" y="159" width="14" height="14" transform="rotate(0,292,166)"/><rect x="285" y="173" width="14" height="14" transform="rotate(0,292,180)"/><rect x="285" y="215" width="14" height="14" transform="rotate(0,292,222)"/><rect x="285" y="229" width="14" height="14" transform="rotate(0,292,236)"/><rect x="285" y="271" width="14" height="14" transform="rotate(0,292,278)"/><rect x="285" y="285" width="14" height="14" transform="rotate(0,292,292)"/><rect x="285" y="299" width="14" height="14" transform="rotate(0,292,306)"/><rect x="285" y="355" width="14" height="14" transform="rotate(0,292,362)"/><rect x="285" y="369" width="14" height="14" transform="rotate(0,292,376)"/><rect x="285" y="383" width="14" height="14" transform="rotate(0,292,390)"/><rect x="285" y="411" width="14" height="14" transform="rotate(0,292,418)"/><rect x="285" y="425" width="14" height="14" transform="rotate(0,292,432)"/><rect x="285" y="453" width="14" height="14" transform="rotate(0,292,460)"/><rect x="299" y="19" width="14" height="14" transform="rotate(0,306,26)"/><rect x="299" y="33" width="14" height="14" transform="rotate(0,306,40)"/><rect x="299" y="47" width="14" height="14" transform="rotate(0,306,54)"/><rect x="299" y="89" width="14" height="14" transform="rotate(0,306,96)"/><rect x="299" y="103" width="14" height="14" transform="rotate(0,306,110)"/><rect x="299" y="131" width="14" height="14" transform="rotate(0,306,138)"/><rect x="299" y="145" width="14" height="14" transform="rotate(0,306,152)"/><rect x="299" y="159" width="14" height="14" transform="rotate(0,306,166)"/><rect x="299" y="187" width="14" height="14" transform="rotate(0,306,194)"/><rect x="299" y="201" width="14" height="14" transform="rotate(0,306,208)"/><rect x="299" y="215" width="14" height="14" transform="rotate(0,306,222)"/><rect x="299" y="229" width="14" height="14" transform="rotate(0,306,236)"/><rect x="299" y="299" width="14" height="14" transform="rotate(0,306,306)"/><rect x="299" y="313" width="14" height="14" transform="rotate(0,306,320)"/><rect x="299" y="327" width="14" height="14" transform="rotate(0,306,334)"/><rect x="299" y="341" width="14" height="14" transform="rotate(0,306,348)"/><rect x="299" y="383" width="14" height="14" transform="rotate(0,306,390)"/><rect x="299" y="453" width="14" height="14" transform="rotate(0,306,460)"/><rect x="299" y="467" width="14" height="14" transform="rotate(0,306,474)"/><rect x="313" y="61" width="14" height="14" transform="rotate(0,320,68)"/><rect x="313" y="89" width="14" height="14" transform="rotate(0,320,96)"/><rect x="313" y="145" width="14" height="14" transform="rotate(0,320,152)"/><rect x="313" y="201" width="14" height="14" transform="rotate(0,320,208)"/><rect x="313" y="243" width="14" height="14" transform="rotate(0,320,250)"/><rect x="313" y="299" width="14" height="14" transform="rotate(0,320,306)"/><rect x="313" y="341" width="14" height="14" transform="rotate(0,320,348)"/><rect x="313" y="355" width="14" height="14" transform="rotate(0,320,362)"/><rect x="313" y="383" width="14" height="14" transform="rotate(0,320,390)"/><rect x="313" y="425" width="14" height="14" transform="rotate(0,320,432)"/><rect x="313" y="439" width="14" height="14" transform="rotate(0,320,446)"/><rect x="313" y="467" width="14" height="14" transform="rotate(0,320,474)"/><rect x="327" y="19" width="14" height="14" transform="rotate(0,334,26)"/><rect x="327" y="33" width="14" height="14" transform="rotate(0,334,40)"/><rect x="327" y="47" width="14" height="14" transform="rotate(0,334,54)"/><rect x="327" y="61" width="14" height="14" transform="rotate(0,334,68)"/><rect x="327" y="75" width="14" height="14" transform="rotate(0,334,82)"/><rect x="327" y="103" width="14" height="14" transform="rotate(0,334,110)"/><rect x="327" y="117" width="14" height="14" transform="rotate(0,334,124)"/><rect x="327" y="159" width="14" height="14" transform="rotate(0,334,166)"/><rect x="327" y="173" width="14" height="14" transform="rotate(0,334,180)"/><rect x="327" y="215" width="14" height="14" transform="rotate(0,334,222)"/><rect x="327" y="243" width="14" height="14" transform="rotate(0,334,250)"/><rect x="327" y="271" width="14" height="14" transform="rotate(0,334,278)"/><rect x="327" y="299" width="14" height="14" transform="rotate(0,334,306)"/><rect x="327" y="327" width="14" height="14" transform="rotate(0,334,334)"/><rect x="327" y="341" width="14" height="14" transform="rotate(0,334,348)"/><rect x="327" y="383" width="14" height="14" transform="rotate(0,334,390)"/><rect x="327" y="411" width="14" height="14" transform="rotate(0,334,418)"/><rect x="327" y="467" width="14" height="14" transform="rotate(0,334,474)"/><rect x="341" y="47" width="14" height="14" transform="rotate(0,348,54)"/><rect x="341" y="61" width="14" height="14" transform="rotate(0,348,68)"/><rect x="341" y="89" width="14" height="14" transform="rotate(0,348,96)"/><rect x="341" y="159" width="14" height="14" transform="rotate(0,348,166)"/><rect x="341" y="173" width="14" height="14" transform="rotate(0,348,180)"/><rect x="341" y="187" width="14" height="14" transform="rotate(0,348,194)"/><rect x="341" y="215" width="14" height="14" transform="rotate(0,348,222)"/><rect x="341" y="243" width="14" height="14" transform="rotate(0,348,250)"/><rect x="341" y="257" width="14" height="14" transform="rotate(0,348,264)"/><rect x="341" y="285" width="14" height="14" transform="rotate(0,348,292)"/><rect x="341" y="299" width="14" height="14" transform="rotate(0,348,306)"/><rect x="341" y="327" width="14" height="14" transform="rotate(0,348,334)"/><rect x="341" y="341" width="14" height="14" transform="rotate(0,348,348)"/><rect x="341" y="355" width="14" height="14" transform="rotate(0,348,362)"/><rect x="341" y="369" width="14" height="14" transform="rotate(0,348,376)"/><rect x="341" y="383" width="14" height="14" transform="rotate(0,348,390)"/><rect x="341" y="397" width="14" height="14" transform="rotate(0,348,404)"/><rect x="341" y="411" width="14" height="14" transform="rotate(0,348,418)"/><rect x="341" y="425" width="14" height="14" transform="rotate(0,348,432)"/><rect x="341" y="453" width="14" height="14" transform="rotate(0,348,460)"/><rect x="341" y="467" width="14" height="14" transform="rotate(0,348,474)"/><rect x="355" y="19" width="14" height="14" transform="rotate(0,362,26)"/><rect x="355" y="33" width="14" height="14" transform="rotate(0,362,40)"/><rect x="355" y="103" width="14" height="14" transform="rotate(0,362,110)"/><rect x="355" y="117" width="14" height="14" transform="rotate(0,362,124)"/><rect x="355" y="131" width="14" height="14" transform="rotate(0,362,138)"/><rect x="355" y="173" width="14" height="14" transform="rotate(0,362,180)"/><rect x="355" y="187" width="14" height="14" transform="rotate(0,362,194)"/><rect x="355" y="201" width="14" height="14" transform="rotate(0,362,208)"/><rect x="355" y="229" width="14" height="14" transform="rotate(0,362,236)"/><rect x="355" y="243" width="14" height="14" transform="rotate(0,362,250)"/><rect x="355" y="257" width="14" height="14" transform="rotate(0,362,264)"/><rect x="355" y="299" width="14" height="14" transform="rotate(0,362,306)"/><rect x="355" y="355" width="14" height="14" transform="rotate(0,362,362)"/><rect x="355" y="369" width="14" height="14" transform="rotate(0,362,376)"/><rect x="355" y="383" width="14" height="14" transform="rotate(0,362,390)"/><rect x="355" y="397" width="14" height="14" transform="rotate(0,362,404)"/><rect x="355" y="411" width="14" height="14" transform="rotate(0,362,418)"/><rect x="355" y="467" width="14" height="14" transform="rotate(0,362,474)"/><rect x="369" y="131" width="14" height="14" transform="rotate(0,376,138)"/><rect x="369" y="145" width="14" height="14" transform="rotate(0,376,152)"/><rect x="369" y="201" width="14" height="14" transform="rotate(0,376,208)"/><rect x="369" y="215" width="14" height="14" transform="rotate(0,376,222)"/><rect x="369" y="229" width="14" height="14" transform="rotate(0,376,236)"/><rect x="369" y="243" width="14" height="14" transform="rotate(0,376,250)"/><rect x="369" y="257" width="14" height="14" transform="rotate(0,376,264)"/><rect x="369" y="285" width="14" height="14" transform="rotate(0,376,292)"/><rect x="369" y="313" width="14" height="14" transform="rotate(0,376,320)"/><rect x="369" y="341" width="14" height="14" transform="rotate(0,376,348)"/><rect x="369" y="355" width="14" height="14" transform="rotate(0,376,362)"/><rect x="369" y="411" width="14" height="14" transform="rotate(0,376,418)"/><rect x="369" y="467" width="14" height="14" transform="rotate(0,376,474)"/><rect x="383" y="201" width="14" height="14" transform="rotate(0,390,208)"/><rect x="383" y="229" width="14" height="14" transform="rotate(0,390,236)"/><rect x="383" y="271" width="14" height="14" transform="rotate(0,390,278)"/><rect x="383" y="285" width="14" height="14" transform="rotate(0,390,292)"/><rect x="383" y="355" width="14" height="14" transform="rotate(0,390,362)"/><rect x="383" y="383" width="14" height="14" transform="rotate(0,390,390)"/><rect x="383" y="411" width="14" height="14" transform="rotate(0,390,418)"/><rect x="383" y="425" width="14" height="14" transform="rotate(0,390,432)"/><rect x="383" y="439" width="14" height="14" transform="rotate(0,390,446)"/><rect x="383" y="467" width="14" height="14" transform="rotate(0,390,474)"/><rect x="397" y="173" width="14" height="14" transform="rotate(0,404,180)"/><rect x="397" y="187" width="14" height="14" transform="rotate(0,404,194)"/><rect x="397" y="229" width="14" height="14" transform="rotate(0,404,236)"/><rect x="397" y="299" width="14" height="14" transform="rotate(0,404,306)"/><rect x="397" y="313" width="14" height="14" transform="rotate(0,404,320)"/><rect x="397" y="341" width="14" height="14" transform="rotate(0,404,348)"/><rect x="397" y="355" width="14" height="14" transform="rotate(0,404,362)"/><rect x="397" y="411" width="14" height="14" transform="rotate(0,404,418)"/><rect x="397" y="425" width="14" height="14" transform="rotate(0,404,432)"/><rect x="397" y="467" width="14" height="14" transform="rotate(0,404,474)"/><rect x="411" y="159" width="14" height="14" transform="rotate(0,418,166)"/><rect x="411" y="173" width="14" height="14" transform="rotate(0,418,180)"/><rect x="411" y="201" width="14" height="14" transform="rotate(0,418,208)"/><rect x="411" y="215" width="14" height="14" transform="rotate(0,418,222)"/><rect x="411" y="243" width="14" height="14" transform="rotate(0,418,250)"/><rect x="411" y="257" width="14" height="14" transform="rotate(0,418,264)"/><rect x="411" y="313" width="14" height="14" transform="rotate(0,418,320)"/><rect x="411" y="341" width="14" height="14" transform="rotate(0,418,348)"/><rect x="411" y="355" width="14" height="14" transform="rotate(0,418,362)"/><rect x="411" y="369" width="14" height="14" transform="rotate(0,418,376)"/><rect x="411" y="383" width="14" height="14" transform="rotate(0,418,390)"/><rect x="411" y="397" width="14" height="14" transform="rotate(0,418,404)"/><rect x="411" y="411" width="14" height="14" transform="rotate(0,418,418)"/><rect x="425" y="145" width="14" height="14" transform="rotate(0,432,152)"/><rect x="425" y="159" width="14" height="14" transform="rotate(0,432,166)"/><rect x="425" y="173" width="14" height="14" transform="rotate(0,432,180)"/><rect x="425" y="187" width="14" height="14" transform="rotate(0,432,194)"/><rect x="425" y="201" width="14" height="14" transform="rotate(0,432,208)"/><rect x="425" y="229" width="14" height="14" transform="rotate(0,432,236)"/><rect x="425" y="271" width="14" height="14" transform="rotate(0,432,278)"/><rect x="425" y="313" width="14" height="14" transform="rotate(0,432,320)"/><rect x="425" y="341" width="14" height="14" transform="rotate(0,432,348)"/><rect x="425" y="369" width="14" height="14" transform="rotate(0,432,376)"/><rect x="425" y="397" width="14" height="14" transform="rotate(0,432,404)"/><rect x="425" y="411" width="14" height="14" transform="rotate(0,432,418)"/><rect x="425" y="467" width="14" height="14" transform="rotate(0,432,474)"/><rect x="439" y="131" width="14" height="14" transform="rotate(0,446,138)"/><rect x="439" y="145" width="14" height="14" transform="rotate(0,446,152)"/><rect x="439" y="187" width="14" height="14" transform="rotate(0,446,194)"/><rect x="439" y="243" width="14" height="14" transform="rotate(0,446,250)"/><rect x="439" y="285" width="14" height="14" transform="rotate(0,446,292)"/><rect x="439" y="341" width="14" height="14" transform="rotate(0,446,348)"/><rect x="439" y="369" width="14" height="14" transform="rotate(0,446,376)"/><rect x="439" y="397" width="14" height="14" transform="rotate(0,446,404)"/><rect x="439" y="411" width="14" height="14" transform="rotate(0,446,418)"/><rect x="439" y="453" width="14" height="14" transform="rotate(0,446,460)"/><rect x="439" y="467" width="14" height="14" transform="rotate(0,446,474)"/><rect x="453" y="131" width="14" height="14" transform="rotate(0,460,138)"/><rect x="453" y="173" width="14" height="14" transform="rotate(0,460,180)"/><rect x="453" y="187" width="14" height="14" transform="rotate(0,460,194)"/><rect x="453" y="201" width="14" height="14" transform="rotate(0,460,208)"/><rect x="453" y="215" width="14" height="14" transform="rotate(0,460,222)"/><rect x="453" y="229" width="14" height="14" transform="rotate(0,460,236)"/><rect x="453" y="257" width="14" height="14" transform="rotate(0,460,264)"/><rect x="453" y="271" width="14" height="14" transform="rotate(0,460,278)"/><rect x="453" y="327" width="14" height="14" transform="rotate(0,460,334)"/><rect x="453" y="355" width="14" height="14" transform="rotate(0,460,362)"/><rect x="453" y="397" width="14" height="14" transform="rotate(0,460,404)"/><rect x="453" y="411" width="14" height="14" transform="rotate(0,460,418)"/><rect x="453" y="425" width="14" height="14" transform="rotate(0,460,432)"/><rect x="467" y="145" width="14" height="14" transform="rotate(0,474,152)"/><rect x="467" y="159" width="14" height="14" transform="rotate(0,474,166)"/><rect x="467" y="187" width="14" height="14" transform="rotate(0,474,194)"/><rect x="467" y="201" width="14" height="14" transform="rotate(0,474,208)"/><rect x="467" y="229" width="14" height="14" transform="rotate(0,474,236)"/><rect x="467" y="257" width="14" height="14" transform="rotate(0,474,264)"/><rect x="467" y="271" width="14" height="14" transform="rotate(0,474,278)"/><rect x="467" y="285" width="14" height="14" transform="rotate(0,474,292)"/><rect x="467" y="299" width="14" height="14" transform="rotate(0,474,306)"/><rect x="467" y="355" width="14" height="14" transform="rotate(0,474,362)"/><rect x="467" y="369" width="14" height="14" transform="rotate(0,474,376)"/><rect x="467" y="397" width="14" height="14" transform="rotate(0,474,404)"/><rect x="467" y="411" width="14" height="14" transform="rotate(0,474,418)"/><rect x="467" y="425" width="14" height="14" transform="rotate(0,474,432)"/><rect x="467" y="467" width="14" height="14" transform="rotate(0,474,474)"/></clipPath><clipPath id="clip-path-corners-square-color-0-0"><path clip-rule="evenodd" d="M 68 19a 49 49 0 1 0 0.1 0zm 0 14a 35 35 0 1 1 -0.1 0Z" transform="rotate(0,68,68)"/></clipPath><clipPath id="clip-path-corners-dot-color-0-0"><circle cx="68" cy="68" r="21" transform="rotate(0,68,68)"/></clipPath><clipPath id="clip-path-corners-square-color-1-0"><path clip-rule="evenodd" d="M 432 19a 49 49 0 1 0 0.1 0zm 0 14a 35 35 0 1 1 -0.1 0Z" transform="rotate(90,432,68)"/></clipPath><clipPath id="clip-path-corners-dot-color-1-0"><circle cx="432" cy="68" r="21" transform="rotate(90,432,68)"/></clipPath><clipPath id="clip-path-corners-square-color-0-1"><path clip-rule="evenodd" d="M 68 383a 49 49 0 1 0 0.1 0zm 0 14a 35 35 0 1 1 -0.1 0Z" transform="rotate(-90,68,432)"/></clipPath><clipPath id="clip-path-corners-dot-color-0-1"><circle cx="68" cy="432" r="21" transform="rotate(-90,68,432)"/></clipPath></defs><rect x="0" y="0" height="500" width="500" clip-path="url('#clip-path-background-color')" fill="#fff"/><rect x="0" y="0" height="500" width="500" clip-path="url('#clip-path-dot-color')" fill="#18417E"/><rect x="19" y="19" height="98" width="98" clip-path="url('#clip-path-corners-square-color-0-0')" fill="#18417E"/><rect x="47" y="47" height="42" width="42" clip-path="url('#clip-path-corners-dot-color-0-0')" fill="#18417E"/><rect x="383" y="19" height="98" width="98" clip-path="url('#clip-path-corners-square-color-1-0')" fill="#18417E"/><rect x="411" y="47" height="42" width="42" clip-path="url('#clip-path-corners-dot-color-1-0')" fill="#18417E"/><rect x="19" y="383" height="98" width="98" clip-path="url('#clip-path-corners-square-color-0-1')" fill="#18417E"/><rect x="47" y="411" height="42" width="42" clip-path="url('#clip-path-corners-dot-color-0-1')" fill="#18417E"/></svg>