<?xml version="1.0" encoding="UTF-8" standalone="no"?>
<!-- Created with Inkscape (http://www.inkscape.org/) -->

<svg
   version="1.1"
   id="svg1"
   width="1334.3199"
   height="1340.3333"
   viewBox="0 0 1334.3199 1340.3333"
   sodipodi:docname="Ensino_branca.eps"
   xmlns:inkscape="http://www.inkscape.org/namespaces/inkscape"
   xmlns:sodipodi="http://sodipodi.sourceforge.net/DTD/sodipodi-0.dtd"
   xmlns="http://www.w3.org/2000/svg"
   xmlns:svg="http://www.w3.org/2000/svg">
  <defs
     id="defs1" />
  <sodipodi:namedview
     id="namedview1"
     pagecolor="#ffffff"
     bordercolor="#000000"
     borderopacity="0.25"
     inkscape:showpageshadow="2"
     inkscape:pageopacity="0.0"
     inkscape:pagecheckerboard="0"
     inkscape:deskcolor="#d1d1d1">
    <inkscape:page
       x="0"
       y="0"
       inkscape:label="1"
       id="page1"
       width="1334.3199"
       height="1340.3333"
       margin="0"
       bleed="0" />
  </sodipodi:namedview>
  <g
     id="g1"
     inkscape:groupmode="layer"
     inkscape:label="1">
    <g
       id="group-R5">
      <path
         id="path2"
         d="m 7270.85,5727.46 c -61.61,47.5 -140.93,80.08 -237.9,97.77 -96.99,17.66 -213.92,26.5 -350.85,26.5 -109.54,0 -207.38,-2.24 -293.53,-6.64 -86.14,-4.41 -161.46,-14.07 -225.92,-28.99 -64.48,-14.89 -119.52,-36.46 -165.15,-64.62 -45.64,-28.14 -82.46,-61.29 -110.4,-99.41 -27.95,-38.09 -48.51,-91.69 -61.61,-160.73 -13.12,-69.02 -19.67,-152.15 -19.67,-249.32 h 1643.02 c 0,129.21 -14.26,230.53 -42.78,304 -28.56,73.47 -73.62,133.94 -135.21,181.44"
         style="fill:#ffffff;fill-opacity:1;fill-rule:nonzero;stroke:none"
         transform="matrix(0.13333333,0,0,-0.13333333,0,1340.3333)" />
      <path
         id="path3"
         d="m 8283.22,4118.66 c -90.73,0 -164.31,74.39 -164.31,166.16 0,91.77 73.58,166.16 164.31,166.16 90.75,0 164.31,-74.39 164.31,-166.16 0,-91.77 -73.56,-166.16 -164.31,-166.16 z m -505.77,911.26 H 5805.82 c 0,-142.17 14.81,-258.74 44.5,-349.76 29.65,-90.98 78.71,-157.49 147.18,-199.48 68.45,-42.03 158.58,-68.67 270.41,-79.98 111.82,-11.29 249.88,-16.94 414.19,-16.94 150.62,0 275.26,3.91 373.96,11.76 98.68,7.86 177.15,22.78 235.31,44.76 58.21,21.99 98.98,52.62 122.38,91.87 23.38,39.26 35.09,90.32 35.09,153.16 h 328.61 c 0,-102.75 -18.58,-190.27 -55.65,-262.62 -37.06,-72.36 -98.38,-130.88 -183.96,-175.64 -85.59,-44.73 -198.28,-77.31 -338.01,-97.74 -139.79,-20.43 -312.36,-30.65 -517.73,-30.65 -219.07,0 -405.07,14.64 -557.94,43.91 -152.92,29.24 -277.28,79.79 -373.12,151.59 -95.84,71.8 -165.45,167.91 -208.79,288.3 -43.38,120.37 -65.05,271.72 -65.05,453.96 0,208.8 21.67,381.35 65.05,517.78 43.34,136.42 112.95,244.92 208.79,325.56 95.84,80.65 220.2,136.96 373.12,169.01 152.87,32.05 338.87,48.06 557.94,48.06 156.3,0 291.81,-11.04 406.48,-33.14 114.66,-22.1 212.77,-54.14 294.35,-96.11 81.59,-41.99 147.76,-92.79 198.54,-152.41 50.76,-59.65 90.72,-122.34 119.82,-188.07 29.11,-65.73 49.03,-142.75 59.9,-231.15 10.83,-88.35 16.26,-181.68 16.26,-279.98 z M 5166.3,4155.11 h -328.59 v 1060.37 c 0,118.2 -9.16,217.89 -27.39,299.07 -18.26,81.21 -54.77,146.66 -109.53,196.35 -54.78,49.7 -132.38,85.59 -232.76,107.69 -100.43,22.09 -232.77,33.14 -397.09,33.14 -177.99,0 -323.75,-12.71 -437.27,-38.12 -113.55,-25.4 -202.82,-61.28 -267.84,-107.68 -65.05,-46.4 -109.85,-102.17 -134.36,-167.33 -24.55,-65.2 -36.81,-137.53 -36.81,-217.07 V 4155.11 h -328.6 V 6063.8 h 328.6 v -318.12 c 23.96,54.11 58.21,100.8 102.71,140.02 44.49,39.18 94.68,72.62 150.6,100.25 55.89,27.57 116.37,49.95 181.42,67.07 65.03,17.13 130.08,30.38 195.11,39.8 65.03,9.34 128.08,15.73 189.12,19.04 61.03,3.3 116.65,4.97 166.87,4.97 146.04,0 271.83,-8.85 377.39,-26.5 105.52,-17.7 195.11,-43.66 268.71,-77.87 73.58,-34.25 132.62,-76.82 177.13,-127.58 44.49,-50.84 78.98,-109.64 103.54,-176.47 24.53,-66.85 40.79,-141.39 48.79,-223.67 7.96,-82.32 11.98,-172.06 11.98,-269.26 z m -164.22,-646.98 c -90.75,0 -164.32,74.4 -164.32,166.16 0,91.78 73.57,166.18 164.32,166.18 90.74,0 164.3,-74.4 164.3,-166.18 0,-91.76 -73.56,-166.16 -164.3,-166.16 z M 2373.14,6370.17 c -90.75,0 -164.31,74.4 -164.31,166.17 0,91.76 73.56,166.16 164.31,166.16 90.74,0 164.31,-74.4 164.31,-166.16 0,-91.77 -73.57,-166.17 -164.31,-166.17 z M 2537.45,4155.11 H 2208.83 V 6063.8 h 328.62 z m 6758.98,3344.17 c -67.49,-940.13 -298.51,-1884.26 -708.88,-2791.83 -1.31,-2.92 -2.74,-5.75 -4.07,-8.67 -38.74,28.38 -81.67,51.22 -127.48,67.94 44.36,88.96 87.68,178.75 129,270.14 373.79,826.71 591.11,1685.28 665.5,2541.91 C 8389.48,9043.42 6809.26,10025.1 5002.08,10025.1 2274.17,10025.1 62.7578,7788.75 62.7578,5030.02 62.7578,3100.51 1144.69,1426.75 2728.38,594.75 c 2077.93,308.77 3994.65,1476.21 5221.8,3302.46 46.39,-40.08 99.86,-72.17 158.46,-93.66 C 7031.94,2042.79 5364.81,817.082 3493.01,272.711 3968.73,118.5 4475.71,34.9023 5002.08,34.9023 c 2727.9,0 4939.3,2236.3977 4939.3,4995.1177 0,898.22 -234.6,1740.95 -644.95,2469.26"
         style="fill:#ffffff;fill-opacity:1;fill-rule:nonzero;stroke:none"
         transform="matrix(0.13333333,0,0,-0.13333333,0,1340.3333)" />
    </g>
  </g>
</svg>
